# Blender 3.4.1
# www.blender.org
mtllib p_wonk_coin.mtl
o Cylinder
v 0.000000 -0.050144 -0.650000
v 0.000000 -0.000144 -0.650000
v 0.191342 -0.050144 -0.611940
v 0.191342 -0.000144 -0.611940
v 0.353553 -0.050144 -0.503553
v 0.353553 -0.000144 -0.503553
v 0.461940 -0.050144 -0.341342
v 0.461940 -0.000144 -0.341342
v 0.500000 -0.050144 -0.150000
v 0.500000 -0.000144 -0.150000
v 0.461940 -0.050144 0.041342
v 0.461940 -0.000144 0.041342
v 0.353553 -0.050144 0.203553
v 0.353553 -0.000144 0.203553
v 0.191342 -0.050144 0.311940
v 0.191342 -0.000144 0.311940
v 0.000000 -0.050144 0.350000
v 0.000000 -0.000144 0.350000
v 0.000000 -0.050144 -0.550000
v 0.000000 -0.000144 -0.550000
v 0.153073 -0.050144 -0.519552
v 0.153073 -0.000144 -0.519552
v 0.282843 -0.050144 -0.432843
v 0.282843 -0.000144 -0.432843
v 0.369552 -0.050144 -0.303073
v 0.369552 -0.000144 -0.303073
v 0.400000 -0.050144 -0.150000
v 0.400000 -0.000144 -0.150000
v 0.369552 -0.050144 0.003073
v 0.369552 -0.000144 0.003073
v 0.282843 -0.050144 0.132843
v 0.282843 -0.000144 0.132843
v 0.153073 -0.050144 0.219552
v 0.153073 -0.000144 0.219552
v 0.000000 -0.050144 0.250000
v 0.000000 -0.000144 0.250000
v 0.352942 0.000000 -0.330655
v 0.298117 0.000000 -0.286611
v 0.000000 0.000000 -0.223152
v 0.000000 0.000000 -0.292190
v 0.019177 0.000000 -0.316597
v 0.046722 0.000000 -0.341702
v 0.089609 0.000000 -0.349372
v 0.115411 0.000000 -0.350767
v 0.116806 0.000000 -0.332636
v 0.090307 0.000000 -0.330544
v 0.044979 0.000000 -0.292190
v 0.051953 0.000000 -0.259414
v 0.168410 0.000000 0.056485
v 0.270920 0.000000 -0.278940
v 0.274407 0.000000 -0.299163
v 0.264296 0.000000 -0.320432
v 0.233264 0.000000 -0.329847
v 0.210251 0.000000 -0.332636
v 0.210251 0.000000 -0.350767
v 0.341571 0.000000 -0.348675
v 0.352942 -0.050000 -0.330655
v 0.298117 -0.050000 -0.286611
v 0.000000 -0.050000 -0.223152
v 0.000000 -0.050000 -0.292190
v 0.019177 -0.050000 -0.316597
v 0.046722 -0.050000 -0.341702
v 0.089609 -0.050000 -0.349372
v 0.115411 -0.050000 -0.350767
v 0.116806 -0.050000 -0.332636
v 0.090307 -0.050000 -0.330544
v 0.044979 -0.050000 -0.292190
v 0.051953 -0.050000 -0.259414
v 0.168410 -0.050000 0.056485
v 0.270920 -0.050000 -0.278940
v 0.274407 -0.050000 -0.299163
v 0.264296 -0.050000 -0.320432
v 0.233264 -0.050000 -0.329847
v 0.210251 -0.050000 -0.332636
v 0.210251 -0.050000 -0.350767
v 0.341571 -0.050000 -0.348675
v -0.191342 -0.050144 -0.611940
v -0.191342 -0.000144 -0.611940
v -0.353553 -0.050144 -0.503553
v -0.353553 -0.000144 -0.503553
v -0.461940 -0.050144 -0.341342
v -0.461940 -0.000144 -0.341342
v -0.500000 -0.050144 -0.150000
v -0.500000 -0.000144 -0.150000
v -0.461940 -0.050144 0.041342
v -0.461940 -0.000144 0.041342
v -0.353553 -0.050144 0.203553
v -0.353553 -0.000144 0.203553
v -0.191342 -0.050144 0.311940
v -0.191342 -0.000144 0.311940
v -0.153073 -0.050144 -0.519552
v -0.153073 -0.000144 -0.519552
v -0.282843 -0.050144 -0.432843
v -0.282843 -0.000144 -0.432843
v -0.369552 -0.050144 -0.303073
v -0.369552 -0.000144 -0.303073
v -0.400000 -0.050144 -0.150000
v -0.400000 -0.000144 -0.150000
v -0.369552 -0.050144 0.003073
v -0.369552 -0.000144 0.003073
v -0.282843 -0.050144 0.132843
v -0.282843 -0.000144 0.132843
v -0.153073 -0.050144 0.219552
v -0.153073 -0.000144 0.219552
v -0.352942 0.000000 -0.330655
v -0.298117 0.000000 -0.286611
v -0.019177 0.000000 -0.316597
v -0.046722 0.000000 -0.341702
v -0.089609 0.000000 -0.349372
v -0.115411 0.000000 -0.350767
v -0.116806 0.000000 -0.332636
v -0.090307 0.000000 -0.330544
v -0.044979 0.000000 -0.292190
v -0.051953 0.000000 -0.259414
v -0.168410 0.000000 0.056485
v -0.270920 0.000000 -0.278940
v -0.274407 0.000000 -0.299163
v -0.264296 0.000000 -0.320432
v -0.233264 0.000000 -0.329847
v -0.210251 0.000000 -0.332636
v -0.210251 0.000000 -0.350767
v -0.341571 0.000000 -0.348675
v -0.352942 -0.050000 -0.330655
v -0.298117 -0.050000 -0.286611
v -0.019177 -0.050000 -0.316597
v -0.046722 -0.050000 -0.341702
v -0.089609 -0.050000 -0.349372
v -0.115411 -0.050000 -0.350767
v -0.116806 -0.050000 -0.332636
v -0.090307 -0.050000 -0.330544
v -0.044979 -0.050000 -0.292190
v -0.051953 -0.050000 -0.259414
v -0.168410 -0.050000 0.056485
v -0.270920 -0.050000 -0.278940
v -0.274407 -0.050000 -0.299163
v -0.264296 -0.050000 -0.320432
v -0.233264 -0.050000 -0.329847
v -0.210251 -0.050000 -0.332636
v -0.210251 -0.050000 -0.350767
v -0.341571 -0.050000 -0.348675
vn -0.0000 -0.0000 -1.0000
vn 0.3827 -0.0000 -0.9239
vn 0.7071 -0.0000 -0.7071
vn 0.9239 -0.0000 -0.3827
vn 1.0000 -0.0000 -0.0000
vn 0.9239 -0.0000 0.3827
vn 0.7071 -0.0000 0.7071
vn 0.3827 -0.0000 0.9239
vn -0.0000 -0.0000 1.0000
vn -0.3827 -0.0000 0.9239
vn -0.6999 -0.0000 0.7143
vn -0.7000 -0.0000 0.7141
vn -0.9327 -0.0000 0.3606
vn -1.0000 -0.0000 -0.0000
vn -0.9325 -0.0000 0.3611
vn -0.9239 -0.0000 -0.3827
vn -0.7071 -0.0000 -0.7071
vn -0.5556 -0.0000 -0.8315
vn -0.1951 -0.0000 -0.9808
vn -0.0000 -1.0000 -0.0000
vn -0.0000 1.0000 -0.0000
vn -0.0003 -1.0000 0.0002
vn 0.0003 1.0000 -0.0002
vn 0.0004 1.0000 -0.0003
vn 0.0004 1.0000 -0.0002
vn 0.0007 1.0000 0.0003
vn 0.0020 1.0000 0.0008
vn 0.0005 1.0000 0.0007
vn -0.0003 1.0000 0.0008
vn 0.0009 1.0000 0.0004
vn -0.0000 1.0000 0.0001
vn -0.0004 -1.0000 0.0002
vn -0.0004 -1.0000 0.0003
vn -0.0007 -1.0000 -0.0003
vn -0.0009 -1.0000 -0.0004
vn 0.0003 -1.0000 -0.0008
vn -0.0005 -1.0000 -0.0007
vn -0.0020 -1.0000 -0.0008
vn -0.0000 -1.0000 -0.0001
vn -0.1152 -0.0000 -0.9933
vn -0.0540 -0.0000 -0.9985
vn 0.9971 -0.0000 -0.0767
vn 0.0159 -0.0000 -0.9999
vn -0.4422 -0.0000 -0.8969
vn -0.7325 -0.0000 -0.6808
vn 0.0787 -0.0000 0.9969
vn -0.2061 -0.0000 0.9785
vn -0.1203 -0.0000 0.9927
vn 0.6459 -0.0000 0.7634
vn -0.2903 -0.0000 0.9569
vn 0.6263 -0.0000 0.7796
vn -0.9031 -0.0000 0.4294
vn -0.9728 -0.0000 -0.2315
vn -0.9855 -0.0000 -0.1699
vn 0.9781 -0.0000 -0.2081
vn 0.9607 -0.0000 -0.2777
vn 0.9613 -0.0000 0.2755
vn -0.9563 -0.0000 -0.2923
vn 0.9383 -0.0000 -0.3459
vn -0.9451 -0.0000 0.3268
vn -0.8201 -0.0000 0.5722
vn -0.8567 -0.0000 0.5159
vn -0.3827 -0.0000 -0.9239
vn -0.9239 -0.0000 0.3827
vn -0.7071 -0.0000 0.7071
vn 0.7000 -0.0000 0.7141
vn 0.6999 -0.0000 0.7143
vn 0.9327 -0.0000 0.3606
vn 0.9325 -0.0000 0.3611
vn 0.5556 -0.0000 -0.8315
vn 0.1951 -0.0000 -0.9808
vn 0.0003 -1.0000 0.0002
vn -0.0003 1.0000 -0.0002
vn -0.0004 1.0000 -0.0002
vn -0.0004 1.0000 -0.0003
vn -0.0007 1.0000 0.0003
vn -0.0009 1.0000 0.0004
vn 0.0003 1.0000 0.0008
vn -0.0005 1.0000 0.0007
vn -0.0020 1.0000 0.0008
vn 0.0004 -1.0000 0.0003
vn 0.0004 -1.0000 0.0002
vn 0.0007 -1.0000 -0.0003
vn 0.0020 -1.0000 -0.0008
vn 0.0005 -1.0000 -0.0007
vn -0.0003 -1.0000 -0.0008
vn 0.0009 -1.0000 -0.0004
vn 0.1152 -0.0000 -0.9933
vn 0.0540 -0.0000 -0.9985
vn -0.9971 -0.0000 -0.0767
vn -0.0159 -0.0000 -0.9999
vn 0.4422 -0.0000 -0.8969
vn 0.7325 -0.0000 -0.6808
vn -0.0787 -0.0000 0.9969
vn 0.2061 -0.0000 0.9785
vn 0.1203 -0.0000 0.9927
vn -0.6459 -0.0000 0.7634
vn 0.2903 -0.0000 0.9569
vn -0.6263 -0.0000 0.7796
vn 0.9031 -0.0000 0.4294
vn 0.9728 -0.0000 -0.2315
vn 0.9855 -0.0000 -0.1699
vn -0.9781 -0.0000 -0.2081
vn -0.9607 -0.0000 -0.2777
vn -0.9613 -0.0000 0.2755
vn 0.9563 -0.0000 -0.2923
vn -0.9383 -0.0000 -0.3459
vn 0.9451 -0.0000 0.3268
vn 0.8201 -0.0000 0.5722
vn 0.8567 -0.0000 0.5159
vn 0.7863 -0.0000 -0.6178
vn -0.7863 -0.0000 -0.6178
vt 0.178368 0.533168
vt 0.062415 0.535415
vt 0.173241 0.533168
vt 0.062415 0.635986
vt 0.178368 0.513190
vt 0.070071 0.516933
vt 0.173241 0.513190
vt 0.062415 0.655991
vt 0.178368 0.495132
vt 0.162986 0.495132
vt 0.084216 0.502788
vt 0.173241 0.495132
vt 0.168113 0.495132
vt 0.070071 0.674473
vt 0.162986 0.510113
vt 0.102698 0.495132
vt 0.168113 0.510113
vt 0.084216 0.688619
vt 0.162986 0.529028
vt 0.122703 0.495132
vt 0.168113 0.529028
vt 0.102698 0.696274
vt 0.162986 0.548995
vt 0.141185 0.502788
vt 0.168113 0.548995
vt 0.122703 0.696274
vt 0.162986 0.566976
vt 0.173241 0.566922
vt 0.155331 0.516933
vt 0.168113 0.566922
vt 0.141185 0.688619
vt 0.173241 0.552013
vt 0.162986 0.535415
vt 0.168113 0.552013
vt 0.155331 0.674473
vt 0.173241 0.533135
vt 0.162986 0.555420
vt 0.168113 0.533135
vt 0.162986 0.655991
vt 0.188622 0.580832
vt 0.072472 0.537416
vt 0.183495 0.580832
vt 0.072472 0.637987
vt 0.188622 0.596811
vt 0.078597 0.522630
vt 0.183495 0.596811
vt 0.072472 0.653991
vt 0.188622 0.611234
vt 0.188623 0.548858
vt 0.089913 0.511314
vt 0.183495 0.611234
vt 0.193750 0.548848
vt 0.078597 0.668776
vt 0.162986 0.612514
vt 0.104699 0.505189
vt 0.168113 0.612516
vt 0.089913 0.680093
vt 0.162991 0.597492
vt 0.120703 0.505189
vt 0.168118 0.597494
vt 0.104699 0.686217
vt 0.162996 0.581501
vt 0.135488 0.511314
vt 0.168123 0.581503
vt 0.120703 0.686217
vt 0.163000 0.566976
vt 0.183495 0.566762
vt 0.146805 0.522630
vt 0.168127 0.566978
vt 0.178368 0.566762
vt 0.135488 0.680093
vt 0.183495 0.578653
vt 0.152929 0.537416
vt 0.188623 0.495132
vt 0.193749 0.553802
vt 0.178368 0.578653
vt 0.146805 0.668776
vt 0.183496 0.495133
vt 0.198876 0.553804
vt 0.183495 0.593738
vt 0.152929 0.553420
vt 0.178368 0.593738
vt 0.152929 0.653991
vt 0.183496 0.553802
vt 0.168127 0.615045
vt 0.087472 0.677870
vt 0.183495 0.548568
vt 0.092998 0.673238
vt 0.198876 0.596215
vt 0.193749 0.553802
vt 0.105344 0.644525
vt 0.193749 0.626772
vt 0.163000 0.630177
vt 0.098401 0.643144
vt 0.095562 0.644585
vt 0.163000 0.627399
vt 0.092487 0.646853
vt 0.173241 0.630567
vt 0.163000 0.624418
vt 0.090857 0.651012
vt 0.173241 0.626328
vt 0.090201 0.653579
vt 0.173241 0.623730
vt 0.169950 0.592612
vt 0.091996 0.654082
vt 0.168127 0.592612
vt 0.170788 0.572104
vt 0.092737 0.651459
vt 0.168127 0.572104
vt 0.198876 0.596215
vt 0.198876 0.600739
vt 0.097501 0.647668
vt 0.198876 0.603972
vt 0.100658 0.649025
vt 0.130098 0.667057
vt 0.193764 0.534839
vt 0.198876 0.634457
vt 0.094314 0.670656
vt 0.193764 0.499230
vt 0.193764 0.497126
vt 0.092210 0.670602
vt 0.188622 0.624591
vt 0.193764 0.495132
vt 0.090273 0.669160
vt 0.089947 0.665850
vt 0.188622 0.627877
vt 0.090127 0.663480
vt 0.169964 0.587485
vt 0.188622 0.630254
vt 0.088304 0.663117
vt 0.168127 0.587485
vt 0.183495 0.624591
vt 0.183495 0.611234
vt 0.193750 0.541257
vt 0.085887 0.676366
vt 0.188623 0.553801
vt 0.163000 0.615044
vt 0.101593 0.506308
vt 0.188622 0.548567
vt 0.104926 0.512703
vt 0.193749 0.596213
vt 0.188622 0.553804
vt 0.105344 0.543954
vt 0.098401 0.542573
vt 0.188622 0.626772
vt 0.168127 0.630177
vt 0.096330 0.540156
vt 0.168127 0.627399
vt 0.094356 0.536884
vt 0.178368 0.630567
vt 0.168127 0.624418
vt 0.094442 0.532417
vt 0.178368 0.626328
vt 0.094818 0.529794
vt 0.178368 0.623730
vt 0.169950 0.587485
vt 0.096670 0.530017
vt 0.168127 0.587485
vt 0.170788 0.566976
vt 0.096350 0.532724
vt 0.168127 0.566976
vt 0.193749 0.596215
vt 0.193749 0.600739
vt 0.099301 0.538050
vt 0.193749 0.603972
vt 0.102736 0.538004
vt 0.136836 0.532611
vt 0.198891 0.534839
vt 0.193749 0.634457
vt 0.105153 0.515591
vt 0.198891 0.499230
vt 0.198891 0.497126
vt 0.103189 0.514836
vt 0.183495 0.624591
vt 0.198891 0.495132
vt 0.100848 0.515428
vt 0.099280 0.518360
vt 0.183495 0.627877
vt 0.098539 0.520619
vt 0.169964 0.582358
vt 0.183495 0.630254
vt 0.096716 0.520256
vt 0.168127 0.582358
vt 0.188622 0.624591
vt 0.188622 0.611234
vt 0.188623 0.541266
vt 0.099553 0.507091
vt 0.178368 0.552024
vt 0.062415 0.555420
vt 0.173241 0.552024
vt 0.070071 0.617504
vt 0.178368 0.566887
vt 0.183495 0.495132
vt 0.070071 0.573902
vt 0.173241 0.566887
vt 0.178368 0.495132
vt 0.084216 0.603359
vt 0.183495 0.513288
vt 0.084216 0.588048
vt 0.178368 0.513288
vt 0.102698 0.595703
vt 0.183495 0.533277
vt 0.102698 0.595703
vt 0.178368 0.533277
vt 0.122703 0.595703
vt 0.183495 0.552054
vt 0.122703 0.595703
vt 0.178368 0.552054
vt 0.141185 0.603359
vt 0.183495 0.566762
vt 0.173241 0.495132
vt 0.141185 0.588048
vt 0.178368 0.566762
vt 0.168113 0.495132
vt 0.155331 0.617504
vt 0.173241 0.513161
vt 0.155331 0.573902
vt 0.168113 0.513161
vt 0.162986 0.635986
vt 0.188622 0.565729
vt 0.072472 0.553420
vt 0.183495 0.565729
vt 0.078597 0.623201
vt 0.188622 0.553802
vt 0.163000 0.615045
vt 0.078597 0.568205
vt 0.183495 0.553802
vt 0.168127 0.615053
vt 0.089913 0.611885
vt 0.188623 0.498166
vt 0.089913 0.579522
vt 0.193750 0.498164
vt 0.104699 0.605760
vt 0.188628 0.514140
vt 0.104699 0.585646
vt 0.193755 0.514138
vt 0.120703 0.605760
vt 0.188633 0.529271
vt 0.120703 0.585646
vt 0.193760 0.529270
vt 0.135488 0.611885
vt 0.188637 0.541257
vt 0.183495 0.624166
vt 0.135488 0.579522
vt 0.193764 0.541255
vt 0.178368 0.624166
vt 0.146805 0.623201
vt 0.183495 0.609720
vt 0.146805 0.568205
vt 0.173241 0.566887
vt 0.188622 0.600902
vt 0.178368 0.609720
vt 0.152929 0.637987
vt 0.178368 0.566889
vt 0.193749 0.600900
vt 0.178368 0.624166
vt 0.193764 0.495132
vt 0.101593 0.606879
vt 0.178368 0.630366
vt 0.178368 0.615856
vt 0.104926 0.613274
vt 0.096330 0.640727
vt 0.193749 0.624466
vt 0.094356 0.637455
vt 0.193749 0.621301
vt 0.094442 0.632988
vt 0.193749 0.616836
vt 0.094818 0.630365
vt 0.193749 0.614197
vt 0.168127 0.577231
vt 0.096670 0.630588
vt 0.169986 0.577231
vt 0.173241 0.615856
vt 0.096350 0.633295
vt 0.173241 0.618576
vt 0.173241 0.623730
vt 0.198876 0.553802
vt 0.099301 0.638621
vt 0.198876 0.557233
vt 0.102736 0.638575
vt 0.136836 0.633182
vt 0.204003 0.628055
vt 0.198876 0.591086
vt 0.105153 0.616162
vt 0.204003 0.595394
vt 0.204003 0.593387
vt 0.103189 0.615407
vt 0.193750 0.541256
vt 0.204003 0.591086
vt 0.100848 0.615999
vt 0.099280 0.618931
vt 0.193750 0.544272
vt 0.098539 0.621190
vt 0.168127 0.582358
vt 0.193750 0.546568
vt 0.096716 0.620827
vt 0.169970 0.582358
vt 0.188622 0.600902
vt 0.188622 0.614197
vt 0.168127 0.624418
vt 0.099553 0.607662
vt 0.183495 0.624166
vt 0.188637 0.495134
vt 0.087472 0.577299
vt 0.183495 0.630366
vt 0.173241 0.615854
vt 0.092998 0.572667
vt 0.095562 0.544014
vt 0.188622 0.624466
vt 0.092487 0.546282
vt 0.188622 0.621301
vt 0.090857 0.550441
vt 0.188622 0.616836
vt 0.090201 0.553008
vt 0.188622 0.614197
vt 0.168127 0.572104
vt 0.091996 0.553511
vt 0.169986 0.572104
vt 0.178368 0.615856
vt 0.092737 0.550888
vt 0.178368 0.618576
vt 0.178368 0.623730
vt 0.204003 0.553802
vt 0.097501 0.547097
vt 0.204003 0.557233
vt 0.100658 0.548454
vt 0.130098 0.566485
vt 0.198876 0.628055
vt 0.204003 0.591086
vt 0.094314 0.570085
vt 0.198876 0.595394
vt 0.198876 0.593387
vt 0.092210 0.570031
vt 0.198877 0.541256
vt 0.198876 0.591086
vt 0.090273 0.568589
vt 0.089947 0.565279
vt 0.198877 0.544272
vt 0.090127 0.562909
vt 0.168127 0.577231
vt 0.198877 0.546568
vt 0.088304 0.562546
vt 0.169970 0.577231
vt 0.193749 0.600902
vt 0.193749 0.614197
vt 0.163000 0.624410
vt 0.085887 0.575795
s 1
usemtl Gold
f 1/1/1 2/3/1 4/7/2 3/5/2
f 3/5/2 4/7/2 6/12/3 5/9/3
f 5/10/3 6/13/3 8/17/4 7/15/4
f 7/15/4 8/17/4 10/21/5 9/19/5
f 9/19/5 10/21/5 12/25/6 11/23/6
f 11/23/6 12/25/6 14/30/7 13/27/7
f 13/28/7 14/30/7 16/34/8 15/32/8
f 15/32/8 16/34/8 18/38/9 17/36/9
f 19/40/9 21/44/10 22/46/10 20/42/9
f 21/44/10 23/48/11 24/51/12 22/46/10
f 25/54/13 27/58/14 28/60/14 26/56/15
f 27/58/14 29/62/16 30/64/16 28/60/14
f 29/62/16 31/66/17 32/69/17 30/64/16
f 31/67/17 33/72/18 34/76/18 32/70/17
f 33/72/19 35/80/1 36/82/1 34/76/19
f 1/2/20 3/6/20 21/45/20 19/41/20
f 4/8/21 2/4/21 20/43/21 22/47/21
f 3/6/20 5/11/22 23/50/22 21/45/20
f 6/14/23 4/8/21 22/47/21 24/53/23
f 7/16/22 9/20/20 27/59/20 25/55/22
f 10/22/21 8/18/23 26/57/23 28/61/21
f 9/20/20 11/24/20 29/63/20 27/59/20
f 12/26/21 10/22/21 28/61/21 30/65/21
f 11/24/20 13/29/20 31/68/20 29/63/20
f 14/31/21 12/26/21 30/65/21 32/71/21
f 13/29/20 15/33/20 33/73/20 31/68/20
f 16/35/21 14/31/21 32/71/21 34/77/21
f 15/33/20 17/37/20 35/81/20 33/73/20
f 18/39/21 16/35/21 34/77/21 36/83/21
f 43/100/21 45/105/21 44/102/21
f 129/317/20 127/312/20 126/310/20 130/320/20
f 41/95/21 47/112/21 46/108/21 42/97/21
f 111/271/21 112/274/21 108/264/21 109/266/21
f 107/262/21 108/264/21 112/274/21 113/278/21
f 54/127/21 53/125/21 52/124/21 37/86/24 56/135/25 55/130/21
f 40/94/21 47/112/21 41/95/21
f 51/121/26 50/118/27 49/115/28 34/77/29 38/88/30
f 39/91/31 49/115/28 48/114/21
f 34/77/29 49/115/28 39/91/31
f 63/152/20 64/154/20 65/157/20
f 65/157/20 66/160/20 62/149/20 63/152/20
f 61/147/20 62/149/20 66/160/20 67/164/20
f 45/105/21 43/100/21 42/97/21 46/108/21
f 125/308/20 131/324/20 130/320/20 126/310/20
f 74/179/20 75/182/20 76/187/32 57/138/33 72/176/20 73/177/20
f 60/144/20 61/147/20 67/164/20
f 71/173/34 58/140/35 33/73/36 69/167/37 70/170/38
f 59/143/39 68/166/20 69/167/37
f 33/73/36 59/143/39 69/167/37
f 43/101/40 44/103/41 64/155/41 63/153/40
f 44/104/42 45/106/42 65/158/42 64/156/42
f 54/128/14 55/131/14 75/183/14 74/180/14
f 55/132/43 56/133/43 76/185/43 75/184/43
f 42/98/44 43/101/40 63/153/40 62/150/44
f 41/96/45 42/99/44 62/151/44 61/148/45
f 45/107/46 46/109/46 66/161/46 65/159/46
f 53/126/47 54/129/48 74/181/48 73/178/47
f 46/110/49 47/111/49 67/163/49 66/162/49
f 52/122/50 53/126/47 73/178/47 72/174/50
f 37/84/51 38/87/51 58/139/51 57/136/51
f 51/120/52 52/123/52 72/175/52 71/172/52
f 50/119/53 51/120/54 71/172/54 70/171/53
f 47/111/55 48/113/56 68/165/56 67/163/55
f 38/87/57 34/78/57 33/74/57 58/139/57
f 49/116/58 50/119/53 70/171/53 69/168/58
f 48/113/56 49/117/59 69/169/59 68/165/56
f 34/79/60 39/89/60 59/141/60 33/75/60
f 23/49/11 76/186/61 56/134/61 24/52/12
f 57/137/62 25/54/13 26/56/15 37/85/62
f 5/11/22 7/16/22 25/55/22 57/138/33 76/187/32 23/50/22
f 72/176/20 57/138/33 58/140/35 71/173/34
f 6/14/23 24/53/23 56/135/25 37/86/24 26/57/23 8/18/23
f 52/124/21 51/121/26 38/88/30 37/86/24
f 1/1/1 77/188/63 78/190/63 2/3/1
f 77/188/63 79/192/17 80/195/17 78/190/63
f 79/193/17 81/198/16 82/200/16 80/196/17
f 81/198/16 83/202/14 84/204/14 82/200/16
f 83/202/14 85/206/64 86/208/64 84/204/14
f 85/206/64 87/210/65 88/213/65 86/208/64
f 87/211/65 89/216/10 90/218/10 88/214/65
f 89/216/10 17/36/9 18/38/9 90/218/10
f 19/40/9 20/42/9 92/222/8 91/220/8
f 91/220/8 92/222/8 94/227/66 93/224/67
f 95/230/68 96/232/69 98/236/5 97/234/5
f 97/234/5 98/236/5 100/240/4 99/238/4
f 99/238/4 100/240/4 102/245/3 101/242/3
f 101/243/3 102/246/3 104/252/70 103/248/70
f 103/248/71 104/252/71 36/82/1 35/80/1
f 1/2/20 19/41/20 91/221/20 77/189/20
f 78/191/21 92/223/21 20/43/21 2/4/21
f 77/189/20 91/221/20 93/226/72 79/194/72
f 80/197/73 94/229/73 92/223/21 78/191/21
f 81/199/72 95/231/72 97/235/20 83/203/20
f 84/205/21 98/237/21 96/233/73 82/201/73
f 83/203/20 97/235/20 99/239/20 85/207/20
f 86/209/21 100/241/21 98/237/21 84/205/21
f 85/207/20 99/239/20 101/244/20 87/212/20
f 88/215/21 102/247/21 100/241/21 86/209/21
f 87/212/20 101/244/20 103/249/20 89/217/20
f 90/219/21 104/253/21 102/247/21 88/215/21
f 89/217/20 103/249/20 35/81/20 17/37/20
f 18/39/21 36/83/21 104/253/21 90/219/21
f 109/266/21 110/268/21 111/271/21
f 120/293/21 121/296/21 122/301/74 105/258/75 118/290/21 119/291/21
f 40/94/21 107/262/21 113/278/21
f 117/287/76 106/261/77 104/253/78 115/281/79 116/284/80
f 39/91/31 114/280/21 115/281/79
f 104/253/78 39/91/31 115/281/79
f 127/312/20 129/317/20 128/314/20
f 138/339/20 137/337/20 136/336/20 123/304/81 140/347/82 139/342/20
f 60/144/20 131/324/20 125/308/20
f 135/333/83 134/330/84 133/327/85 103/249/86 124/307/87
f 59/143/39 133/327/85 132/326/20
f 103/249/86 133/327/85 59/143/39
f 109/267/88 127/313/88 128/315/89 110/269/89
f 110/270/90 128/316/90 129/318/90 111/272/90
f 120/294/5 138/340/5 139/343/5 121/297/5
f 121/298/91 139/344/91 140/345/91 122/299/91
f 108/265/92 126/311/92 127/313/88 109/267/88
f 107/263/93 125/309/93 126/311/92 108/265/92
f 111/273/94 129/319/94 130/321/94 112/275/94
f 119/292/95 137/338/95 138/341/96 120/295/96
f 112/275/97 130/321/97 131/322/97 113/276/97
f 118/288/98 136/334/98 137/338/95 119/292/95
f 105/256/99 123/302/99 124/305/99 106/259/99
f 117/286/100 135/332/100 136/335/100 118/289/100
f 116/285/101 134/331/101 135/332/102 117/286/102
f 113/277/103 131/323/103 132/325/104 114/279/104
f 106/260/105 124/306/105 103/250/105 104/254/105
f 115/282/106 133/328/106 134/331/101 116/285/101
f 114/279/104 132/325/104 133/329/107 115/283/107
f 104/255/108 103/251/108 59/142/108 39/90/108
f 93/225/67 94/228/66 122/300/109 140/346/109
f 123/303/110 105/257/110 96/232/69 95/230/68
f 79/194/72 93/226/72 140/347/82 123/304/81 95/231/72 81/199/72
f 136/336/20 135/333/83 124/307/87 123/304/81
f 80/197/73 82/201/73 96/233/73 105/258/75 122/301/74 94/229/73
f 118/290/21 105/258/75 106/261/77 117/287/76
f 131/324/20 60/144/20 59/143/39 132/326/20
f 67/164/20 68/166/20 59/143/39 60/144/20
f 60/145/111 125/309/93 107/263/93 40/92/111
f 41/96/45 61/148/45 60/146/112 40/93/112
f 113/278/21 114/280/21 39/91/31 40/94/21
f 47/112/21 40/94/21 39/91/31 48/114/21
