# Blender 3.4.1
# www.blender.org
mtllib part.mtl
o Mesh1
v 0.500000 0.500000 -0.500000
v 0.500000 -0.500000 -0.500000
v 0.500000 0.500000 0.500000
v 0.500000 -0.500000 0.500000
v -0.500000 0.500000 -0.500000
v -0.500000 -0.500000 -0.500000
v -0.500000 0.500000 0.500000
v -0.500000 -0.500000 0.500000
vn -0.0000 1.0000 -0.0000
vn -0.0000 -0.0000 1.0000
vn -1.0000 -0.0000 -0.0000
vn -0.0000 -1.0000 -0.0000
vn 1.0000 -0.0000 -0.0000
vn -0.0000 -0.0000 -1.0000
vt 1.000000 1.000000
vt 1.000000 1.000000
vt 1.000000 0.000000
vt 1.000000 0.000000
vt 1.000000 1.000000
vt 0.000000 1.000000
vt 1.000000 0.000000
vt 0.000000 0.000000
vt 1.000000 1.000000
vt 0.000000 1.000000
vt 1.000000 0.000000
vt 0.000000 1.000000
vt 0.000000 0.000000
vt 0.000000 0.000000
vt 0.000000 1.000000
vt 0.000000 0.000000
s 1
usemtl Paint
f 1/1/1 5/10/1 7/14/1 3/4/1
f 4/7/2 3/5/2 7/15/2 8/16/2
f 8/16/3 7/15/3 5/9/3 6/11/3
f 6/12/4 2/2/4 4/7/4 8/16/4
f 2/3/5 1/1/5 3/6/5 4/8/5
f 6/13/6 5/10/6 1/1/6 2/3/6
o Mesh1.001
v 0.600000 0.600000 -0.600000
v 0.600000 -0.600000 -0.600000
v 0.600000 0.600000 0.600000
v 0.600000 -0.600000 0.600000
v -0.600000 0.600000 -0.600000
v -0.600000 -0.600000 -0.600000
v -0.600000 0.600000 0.600000
v -0.600000 -0.600000 0.600000
vn -0.5774 -0.5774 0.5774
vn -0.5774 -0.5774 -0.5774
vn 0.5774 -0.5774 -0.5774
vn 0.5774 -0.5774 0.5774
vn -0.5774 0.5774 -0.5774
vn 0.5774 0.5774 -0.5774
vn 0.5774 0.5774 0.5774
vn -0.5774 0.5774 0.5774
vt 1.000000 0.000000
vt 0.333333 0.666667
vt 0.333333 1.000000
vt 0.333333 0.000000
vt 0.333333 0.333333
vt 0.333333 0.666667
vt 1.000000 0.333333
vt 0.000000 0.333333
vt 0.666667 0.666667
vt 0.000000 0.000000
vt 0.333333 0.333333
vt 0.666667 0.333333
vt 0.666667 0.000000
vt 0.333333 0.666667
vt 0.000000 1.000000
vt 0.333333 0.333333
vt 0.666667 0.000000
vt 0.000000 0.666667
vt 0.666667 0.333333
vt 0.333333 0.333333
vt 0.000000 0.666667
vt 0.333333 0.000000
vt 0.000000 0.333333
vt 0.666667 0.333333
s 1
usemtl Outline
f 9/17/7 11/23/8 15/35/9 13/29/10
f 12/26/11 16/38/12 15/36/9 11/24/8
f 16/39/12 14/32/13 13/30/10 15/37/9
f 14/33/13 16/40/12 12/27/11 10/20/14
f 10/21/14 12/28/11 11/25/8 9/18/7
f 14/34/13 10/22/14 9/19/7 13/31/10
